<svg width="19" height="19" viewBox="0 0 19 19" fill="none" xmlns="http://www.w3.org/2000/svg">
<path d="M9.5 19C14.7467 19 19 14.7467 19 9.5C19 4.25329 14.7467 0 9.5 0C4.25329 0 0 4.25329 0 9.5C0 14.7467 4.25329 19 9.5 19Z" fill="url(#paint0_linear)"/>
<path d="M15.3234 7.60787C15.2579 7.40636 15.0838 7.25948 14.8741 7.22902L11.5056 6.73955L9.99921 3.68722C9.90543 3.49722 9.71191 3.37695 9.50005 3.37695C9.28819 3.37695 9.09467 3.49722 9.00089 3.68726L7.49447 6.73958L4.12602 7.22905C3.91635 7.25952 3.74212 7.4064 3.67666 7.6079C3.6112 7.80941 3.66583 8.03062 3.81753 8.1785L6.25498 10.5544L5.67957 13.9092C5.64376 14.118 5.72959 14.3291 5.901 14.4537C6.07244 14.5782 6.29966 14.5946 6.48721 14.496L9.50005 12.9121L12.5129 14.496C12.7018 14.5953 12.929 14.5773 13.0991 14.4537C13.2705 14.3291 13.3564 14.1181 13.3206 13.9092L12.7452 10.5544L15.1826 8.1785C15.3343 8.03058 15.3889 7.80937 15.3234 7.60787V7.60787Z" fill="url(#paint1_linear)"/>
<defs>
<linearGradient id="paint0_linear" x1="9.5" y1="19" x2="9.5" y2="0" gradientUnits="userSpaceOnUse">
<stop stop-color="#FD5900"/>
<stop offset="1" stop-color="#FFDE00"/>
</linearGradient>
<linearGradient id="paint1_linear" x1="9.50005" y1="14.56" x2="9.50005" y2="3.37695" gradientUnits="userSpaceOnUse">
<stop stop-color="#FFE59A"/>
<stop offset="1" stop-color="#FFFFD5"/>
</linearGradient>
</defs>
</svg>
