<svg width="512" height="512" viewBox="0 0 512 512" fill="none" xmlns="http://www.w3.org/2000/svg">
<g clip-path="url(#clip0)">
<path d="M298.665 277.336C263.38 277.336 234.665 248.621 234.665 213.336C234.665 178.052 263.38 149.337 298.665 149.337H341.328V64.0059C341.328 28.7211 312.614 0.0065918 277.329 0.0065918H47.9995C40.98 0.0065918 34.4098 3.45968 30.4216 9.24087C26.4528 15.0221 25.5583 22.3853 28.0739 28.9321L182.74 434.264C185.877 442.541 193.81 448.002 202.666 448.002H277.329C312.614 448.002 341.328 419.287 341.328 384.003V277.336H298.665Z" fill="#D81E5B"/>
<path d="M397.16 318.382C389.203 315.074 383.996 307.289 383.996 298.668V234.668H298.665C286.888 234.668 277.329 225.114 277.329 213.336C277.329 201.559 286.888 192.005 298.665 192.005H383.996V128.005C383.996 119.384 389.203 111.599 397.16 108.291C405.136 104.986 414.312 106.822 420.41 112.923L505.745 198.255C514.084 206.594 514.084 220.079 505.745 228.418L420.41 313.753C414.312 319.851 405.136 321.687 397.16 318.382Z" fill="white"/>
<path d="M184.447 44.8459L56.2572 2.11592C27.3278 -6.77852 0 14.5767 0 42.6702V426.666C0 444.908 11.6053 461.185 28.8864 467.158L157.053 509.888C161.768 511.337 166.1 512.001 170.666 512.001C194.197 512.001 213.33 492.865 213.33 469.334V85.3377C213.33 67.0996 201.724 50.8224 184.447 44.8459V44.8459Z" fill="#BB154B"/>
</g>
<defs>
<clipPath id="clip0">
<rect width="512" height="512" fill="white"/>
</clipPath>
</defs>
</svg>
