<svg width="40" height="40" viewBox="0 0 40 40" fill="none" xmlns="http://www.w3.org/2000/svg">
<g clip-path="url(#clip0)">
<path d="M34.142 5.85886C30.3646 2.08129 25.3421 0.000976562 19.9999 0.000976562C14.6576 0.000976562 9.63537 2.08129 5.85788 5.85886C2.08039 9.63627 0 14.6587 0 20.0009C0 25.343 2.08039 30.3655 5.85788 34.1429C9.63537 37.9205 14.6579 40.0008 20 40.0008C25.3422 40.0008 30.3647 37.9204 34.1421 34.1429C37.9196 30.3655 40 25.343 40 20.0009C40 14.6587 37.9195 9.63627 34.142 5.85886ZM19.9999 37.5913C10.3006 37.5913 2.4096 29.7002 2.4096 20.0009C2.4096 10.3015 10.3006 2.4105 19.9999 2.4105C29.6992 2.4105 37.5902 10.3016 37.5902 20.0009C37.5902 29.7001 29.6993 37.5913 19.9999 37.5913Z" fill="#606060"/>
<path d="M31.006 18.7952H8.99773C8.33234 18.7952 7.79297 19.3346 7.79297 19.9999C7.79297 20.6653 8.33242 21.2047 8.99773 21.2047H31.006C31.6714 21.2047 32.2107 20.6652 32.2107 19.9999C32.2107 19.3345 31.6714 18.7952 31.006 18.7952Z" fill="#606060"/>
<path d="M29.3947 12.1687H10.5993C9.93391 12.1687 9.39453 12.7082 9.39453 13.3735C9.39453 14.0389 9.93398 14.5783 10.5993 14.5783H29.3947C30.0601 14.5783 30.5996 14.0389 30.5996 13.3735C30.5996 12.7082 30.0601 12.1687 29.3947 12.1687Z" fill="#606060"/>
<path d="M29.3947 25.4216H10.5993C9.93391 25.4216 9.39453 25.9611 9.39453 26.6264C9.39453 27.2918 9.93398 27.8312 10.5993 27.8312H29.3947C30.0601 27.8312 30.5996 27.2917 30.5996 26.6264C30.5996 25.961 30.0601 25.4216 29.3947 25.4216Z" fill="#606060"/>
</g>
<defs>
<clipPath id="clip0">
<rect width="40" height="40" fill="white"/>
</clipPath>
</defs>
</svg>
